<?xml version="1.0" ?><!DOCTYPE svg  PUBLIC '-//W3C//DTD SVG 1.1//EN'  'http://www.w3.org/Graphics/SVG/1.1/DTD/svg11.dtd'><svg id="Lager_1" style="enable-background:new -265 388.9 64 64;" version="1.1" viewBox="-265 388.9 64 64" xml:space="preserve" xmlns="http://www.w3.org/2000/svg" xmlns:xlink="http://www.w3.org/1999/xlink"><path d="M-214.3,421.3l-6.6-11.8c-0.3-0.6-0.9-0.9-1.6-0.9h-6.9c-0.9,0-1.6,0.5-2.1,1.3l-7.1,18.9l-3.8-6.6l6.4-11.1  c0.3-0.5,0.3-1.1,0-1.6s-0.9-0.9-1.6-0.9h-3.9c-0.7,0-1.3,0.3-1.6,0.9l-6.6,11.8c-0.3,0.6-0.3,1.3,0,1.9l6.6,11.8  c0.3,0.6,0.9,0.9,1.6,0.9h6.9c0.9,0,1.6-0.5,2.1-1.3l7.1-18.9l3.8,6.6l-6.4,11.1c-0.3,0.5-0.3,1.1,0,1.6s0.9,0.9,1.6,0.9h3.9  c0.7,0,1.3-0.3,1.6-0.9l6.6-11.8C-213.9,422.6-213.9,421.9-214.3,421.3z"/></svg>